<svg width="23" height="23" viewBox="0 0 23 23" fill="none" xmlns="http://www.w3.org/2000/svg">
<path d="M14.5475 15.5639L20.3349 21.3527C20.4017 21.4195 20.481 21.4725 20.5683 21.5087C20.6557 21.5448 20.7492 21.5635 20.8437 21.5635C20.9382 21.5635 21.0318 21.5448 21.1191 21.5087C21.2065 21.4725 21.2858 21.4195 21.3526 21.3527C21.4194 21.2859 21.4725 21.2065 21.5086 21.1192C21.5448 21.0319 21.5634 20.9383 21.5634 20.8438C21.5634 20.7493 21.5448 20.6557 21.5086 20.5684C21.4725 20.4811 21.4194 20.4018 21.3526 20.3349L2.66512 1.64743C2.59829 1.5806 2.51896 1.52759 2.43164 1.49143C2.34433 1.45526 2.25075 1.43665 2.15624 1.43665C2.06174 1.43665 1.96815 1.45526 1.88084 1.49143C1.79353 1.52759 1.71419 1.5806 1.64737 1.64743C1.58054 1.71425 1.52753 1.79359 1.49137 1.8809C1.4552 1.96822 1.43658 2.0618 1.43658 2.1563C1.43658 2.25081 1.4552 2.34439 1.49137 2.4317C1.52753 2.51902 1.58054 2.59835 1.64737 2.66518L6.29049 7.3083C5.65869 7.75615 5.09008 8.28705 4.59999 8.88668C3.90625 9.73791 3.3632 10.7015 2.9943 11.7358C2.96412 11.8235 2.92674 11.9442 2.92674 11.9442L2.90087 12.0334C2.90087 12.0334 2.79162 12.7478 3.41118 12.9117C3.59532 12.9603 3.79125 12.9339 3.95593 12.8383C4.12061 12.7426 4.24058 12.5854 4.28949 12.4014L4.29093 12.3971L4.30243 12.3611L4.35274 12.2044C4.66606 11.3312 5.1254 10.5175 5.71118 9.79805C6.17266 9.23299 6.71749 8.74148 7.32693 8.34043L9.59531 10.6088C9.13755 10.8957 8.75037 11.2821 8.46256 11.7393C8.17475 12.1965 7.99372 12.7127 7.93293 13.2495C7.87214 13.7863 7.93316 14.3299 8.11144 14.8399C8.28973 15.3498 8.58069 15.813 8.96269 16.195C9.3447 16.577 9.80791 16.868 10.3179 17.0463C10.8278 17.2246 11.3714 17.2856 11.9082 17.2248C12.445 17.164 12.9612 16.983 13.4184 16.6952C13.8756 16.4074 14.262 16.0202 14.5489 15.5624M9.08643 6.03468L10.3141 7.2623C10.6868 7.21247 11.0822 7.18755 11.5 7.18755C14.4382 7.18755 16.2236 8.49855 17.2902 9.79949C17.876 10.5189 18.3354 11.3326 18.6487 12.2059C18.6726 12.2758 18.6894 12.3281 18.699 12.3626L18.7105 12.3985V12.4028L18.7119 12.4042C18.7651 12.5836 18.8862 12.7352 19.0494 12.8268C19.2125 12.9183 19.405 12.9426 19.5858 12.8945C19.7666 12.8464 19.9216 12.7297 20.0177 12.5691C20.1138 12.4086 20.1435 12.2169 20.1006 12.0348V12.0305L20.0991 12.0247L20.0934 12.0061C20.069 11.9151 20.0403 11.8254 20.0071 11.7372C19.6382 10.7029 19.0952 9.73934 18.4014 8.88812C17.1134 7.31549 14.9442 5.75005 11.5029 5.75005C10.6145 5.75005 9.81093 5.85212 9.08643 6.03468Z" fill="#6A707C"/>
</svg>
