<svg width="23" height="23" viewBox="0 0 24 22" fill="none" xmlns="http://www.w3.org/2000/svg">
<path d="M3.75636 12.8237C4.56789 9.09561 7.96038 6.44669 11.7765 6.44669C15.5914 6.44669 18.9839 9.09561 19.7966 12.8237C19.8288 12.9716 19.9211 13.1013 20.0532 13.1841C20.1853 13.2669 20.3464 13.2962 20.501 13.2654C20.6557 13.2346 20.7912 13.1463 20.8778 13.0199C20.9644 12.8935 20.9949 12.7394 20.9627 12.5915C20.0382 8.35114 16.1709 5.30835 11.7765 5.30835C7.38207 5.30835 3.5148 8.35114 2.59023 12.5915C2.55804 12.7394 2.5886 12.8935 2.67518 13.0199C2.76177 13.1463 2.89728 13.2346 3.05192 13.2654C3.20656 13.2962 3.36765 13.2669 3.49976 13.1841C3.63187 13.1013 3.72417 12.9716 3.75636 12.8237V12.8237ZM11.7646 8.72338C12.8691 8.72338 13.9285 9.14314 14.7095 9.89032C15.4905 10.6375 15.9293 11.6509 15.9293 12.7076C15.9293 13.7642 15.4905 14.7776 14.7095 15.5248C13.9285 16.272 12.8691 16.6918 11.7646 16.6918C10.66 16.6918 9.6007 16.272 8.81966 15.5248C8.03861 14.7776 7.59983 13.7642 7.59983 12.7076C7.59983 11.6509 8.03861 10.6375 8.81966 9.89032C9.6007 9.14314 10.66 8.72338 11.7646 8.72338V8.72338Z" fill="#6A707C"/>
</svg>
