<svg width="33" height="32" viewBox="0 0 33 32" fill="none" xmlns="http://www.w3.org/2000/svg">
<g clip-path="url(#clip0_6_782)">
<path d="M13.8333 14.6667C13.8333 13.196 15.0293 12 16.5 12C17.9707 12 19.1667 13.196 19.1667 14.6667C19.1667 16.1373 17.9707 17.3333 16.5 17.3333C15.0293 17.3333 13.8333 16.1373 13.8333 14.6667ZM20.5 25.3333L12.5 25.3333C11.764 25.3333 11.1667 25.9307 11.1667 26.6667L11.1667 32L21.8333 32L21.8333 26.6667C21.8333 25.9307 21.236 25.3333 20.5 25.3333ZM32.5 32L24.5 32L24.5 26.6667C24.5 24.4613 22.7053 22.6667 20.5 22.6667L12.5 22.6667C10.2947 22.6667 8.5 24.4613 8.5 26.6667L8.5 32L0.5 32L0.5 13.432C0.5 12.1533 1.07733 10.968 2.08267 10.18L13.956 0.877338C15.456 -0.297329 17.544 -0.297329 19.044 0.877338L30.9173 10.18C31.9227 10.9693 32.5 12.1533 32.5 13.432L32.5 32ZM21.8333 14.6667C21.8333 11.7253 19.4413 9.33334 16.5 9.33334C13.5587 9.33334 11.1667 11.7253 11.1667 14.6667C11.1667 17.608 13.5587 20 16.5 20C19.4413 20 21.8333 17.608 21.8333 14.6667Z" fill="black"/>
</g>
<defs>
<clipPath id="clip0_6_782">
<rect width="32" height="32" fill="white" transform="translate(0.5)"/>
</clipPath>
</defs>
</svg>
