<svg width="33" height="32" viewBox="0 0 33 32" fill="none" xmlns="http://www.w3.org/2000/svg">
<g clip-path="url(#clip0_6_830)">
<path d="M30.9173 10.18L19.044 0.877338C17.544 -0.297329 15.456 -0.297329 13.956 0.877338L2.08267 10.18C1.07733 10.9693 0.5 12.1533 0.5 13.432V32H32.5V13.432C32.5 12.1533 31.9227 10.968 30.9173 10.18ZM21.8333 29.3333H11.1667V25.3333C11.1667 24.5973 11.764 24 12.5 24H20.5C21.236 24 21.8333 24.5973 21.8333 25.3333V29.3333ZM29.8333 29.3333H24.5V25.3333C24.5 23.128 22.7053 21.3333 20.5 21.3333H12.5C10.2947 21.3333 8.5 23.128 8.5 25.3333V29.3333H3.16667V13.432C3.16667 12.9787 3.37067 12.5587 3.72667 12.2787L15.6013 2.976C16.1293 2.56134 16.8693 2.56134 17.3987 2.976L29.272 12.2787C29.6293 12.5587 29.8333 12.9787 29.8333 13.432V29.3333ZM16.5 9.33334C13.5587 9.33334 11.1667 11.7253 11.1667 14.6667C11.1667 17.608 13.5587 20 16.5 20C19.4413 20 21.8333 17.608 21.8333 14.6667C21.8333 11.7253 19.4413 9.33334 16.5 9.33334ZM16.5 17.3333C15.0293 17.3333 13.8333 16.1373 13.8333 14.6667C13.8333 13.196 15.0293 12 16.5 12C17.9707 12 19.1667 13.196 19.1667 14.6667C19.1667 16.1373 17.9707 17.3333 16.5 17.3333Z" fill="black"/>
</g>
<defs>
<clipPath id="clip0_6_830">
<rect width="32" height="32" fill="white" transform="translate(0.5)"/>
</clipPath>
</defs>
</svg>
