<svg width="33" height="33" viewBox="0 0 33 33" fill="none" xmlns="http://www.w3.org/2000/svg">
<path d="M25.8333 32.5L7.16667 32.5C3.48667 32.5 0.5 29.5133 0.5 25.8333L0.5 7.16667C0.5 3.48667 3.48667 0.5 7.16667 0.5L25.8333 0.5C29.5133 0.5 32.5 3.48667 32.5 7.16667L32.5 25.8333C32.5 29.5133 29.5133 32.5 25.8333 32.5ZM29.8333 7.16667C29.8333 4.96667 28.0333 3.16667 25.8333 3.16667L7.16667 3.16667C4.96667 3.16667 3.16667 4.96667 3.16667 7.16667L3.16667 25.8333C3.16667 28.0333 4.96667 29.8333 7.16667 29.8333L25.8333 29.8333C28.0333 29.8333 29.8333 28.0333 29.8333 25.8333L29.8333 7.16667ZM7.16667 19.1667C7.16667 19.9 7.76667 20.5 8.5 20.5L20.5 20.5C21.2333 20.5 21.8333 19.9 21.8333 19.1667C21.8333 18.4333 21.2333 17.8333 20.5 17.8333L8.5 17.8333C7.76667 17.8333 7.16667 18.4333 7.16667 19.1667ZM7.16667 24.5C7.16667 25.2333 7.76667 25.8333 8.5 25.8333L16.5 25.8333C17.2333 25.8333 17.8333 25.2333 17.8333 24.5C17.8333 23.7667 17.2333 23.1667 16.5 23.1667L8.5 23.1667C7.76667 23.1667 7.16667 23.7667 7.16667 24.5ZM25.8333 13.8333C25.8333 13.1 25.2333 12.5 24.5 12.5L8.5 12.5C7.76667 12.5 7.16667 13.1 7.16667 13.8333C7.16667 14.5667 7.76667 15.1667 8.5 15.1667L24.5 15.1667C25.2333 15.1667 25.8333 14.5667 25.8333 13.8333ZM13.8333 8.5C13.8333 7.76667 13.2333 7.16667 12.5 7.16667L8.5 7.16667C7.76667 7.16667 7.16667 7.76667 7.16667 8.5C7.16667 9.23333 7.76667 9.83333 8.5 9.83333L12.5 9.83333C13.2333 9.83333 13.8333 9.23333 13.8333 8.5Z" fill="black"/>
</svg>
