<svg width="33" height="32" viewBox="0 0 33 32" fill="none" xmlns="http://www.w3.org/2000/svg">
<g clip-path="url(#clip0_6_832)">
<path d="M25.8333 32H7.16667C3.48667 32 0.5 29.0133 0.5 25.3333V6.66667C0.5 2.98667 3.48667 0 7.16667 0H25.8333C29.5133 0 32.5 2.98667 32.5 6.66667V25.3333C32.5 29.0133 29.5133 32 25.8333 32ZM8.5 25.3333H16.5C17.2333 25.3333 17.8333 24.7333 17.8333 24C17.8333 23.2667 17.2333 22.6667 16.5 22.6667H8.5C7.76667 22.6667 7.16667 23.2667 7.16667 24C7.16667 24.7333 7.76667 25.3333 8.5 25.3333ZM8.5 20H20.5C21.2333 20 21.8333 19.4 21.8333 18.6667C21.8333 17.9333 21.2333 17.3333 20.5 17.3333H8.5C7.76667 17.3333 7.16667 17.9333 7.16667 18.6667C7.16667 19.4 7.76667 20 8.5 20ZM12.5 6.66667H8.5C7.76667 6.66667 7.16667 7.26667 7.16667 8C7.16667 8.73333 7.76667 9.33333 8.5 9.33333H12.5C13.2333 9.33333 13.8333 8.73333 13.8333 8C13.8333 7.26667 13.2333 6.66667 12.5 6.66667ZM24.5 12H8.5C7.76667 12 7.16667 12.6 7.16667 13.3333C7.16667 14.0667 7.76667 14.6667 8.5 14.6667H24.5C25.2333 14.6667 25.8333 14.0667 25.8333 13.3333C25.8333 12.6 25.2333 12 24.5 12Z" fill="black"/>
</g>
<defs>
<clipPath id="clip0_6_832">
<rect width="32" height="32" fill="white" transform="matrix(1 0 0 -1 0.5 32)"/>
</clipPath>
</defs>
</svg>
