<svg width="33" height="32" viewBox="0 0 33 32" fill="none" xmlns="http://www.w3.org/2000/svg">
<path d="M11.98 29.3334C11.3294 29.3295 10.6976 29.1143 10.18 28.72L7.42 26.6667C6.78308 26.1701 6.36047 25.4485 6.23897 24.65C6.11747 23.8516 6.30629 23.0369 6.76667 22.3734C7.01025 22.0137 7.16505 21.6014 7.21836 21.1702C7.27167 20.7391 7.22197 20.3015 7.07333 19.8934L6.99333 19.68C6.88984 19.3106 6.70068 18.9707 6.44121 18.6881C6.18174 18.4055 5.85928 18.188 5.5 18.0534L5.28667 18.0534C4.50783 17.7915 3.86375 17.2329 3.49428 16.499C3.12481 15.765 3.05979 14.915 3.31333 14.1334L4.40667 10.6667C4.50731 10.265 4.69261 9.88952 4.95015 9.5653C5.2077 9.24107 5.53154 8.97561 5.9 8.78669C6.24314 8.60989 6.61858 8.50455 7.0036 8.47705C7.38862 8.44955 7.77522 8.50045 8.14 8.62669C8.53718 8.76036 8.96099 8.795 9.37461 8.72762C9.78822 8.66023 10.1791 8.49285 10.5133 8.24002L10.6867 8.10669C10.9892 7.86529 11.2337 7.55909 11.4022 7.21064C11.5706 6.86219 11.6587 6.48038 11.66 6.09335L11.66 5.77335C11.6564 4.95753 11.9753 4.17332 12.5471 3.59146C13.119 3.00961 13.8976 2.67723 14.7133 2.66669L18.1133 2.66669C18.5102 2.66776 18.903 2.74723 19.2691 2.90053C19.6352 3.05384 19.9674 3.27796 20.2467 3.56002C20.8337 4.15708 21.1598 4.96272 21.1533 5.80002L21.1533 6.17335C21.1466 6.54102 21.2263 6.90514 21.3861 7.23633C21.5459 7.56752 21.7813 7.85652 22.0733 8.08002L22.22 8.18669C22.5193 8.41109 22.8683 8.55981 23.2375 8.62017C23.6066 8.68053 23.9849 8.65075 24.34 8.53335L24.7933 8.38669C25.1774 8.25937 25.5832 8.21071 25.9865 8.24361C26.3898 8.27652 26.7824 8.39031 27.1407 8.57821C27.4991 8.7661 27.8159 9.02425 28.0724 9.33725C28.3288 9.65025 28.5196 10.0117 28.6333 10.4L29.6867 13.76C29.9304 14.5365 29.8638 15.3773 29.5008 16.1057C29.1378 16.8342 28.5067 17.3937 27.74 17.6667L27.4733 17.76C27.0811 17.8885 26.7265 18.1112 26.4405 18.4088C26.1545 18.7064 25.946 19.0697 25.8333 19.4667C25.7272 19.8358 25.702 20.2234 25.7596 20.6031C25.8171 20.9828 25.956 21.3456 26.1667 21.6667L26.5133 22.1734C26.9731 22.8406 27.1601 23.6585 27.0362 24.4592C26.9122 25.26 26.4866 25.983 25.8467 26.48L23.1667 28.5467C22.8429 28.7943 22.4719 28.973 22.0764 29.0718C21.681 29.1707 21.2695 29.1875 20.8673 29.1213C20.4651 29.0551 20.0807 28.9073 19.7378 28.6869C19.3949 28.4666 19.1007 28.1783 18.8733 27.84L18.7133 27.6134C18.495 27.2852 18.197 27.0177 17.8473 26.8358C17.4975 26.6539 17.1074 26.5637 16.7133 26.5734C16.3373 26.5831 15.9688 26.6811 15.6376 26.8594C15.3064 27.0378 15.0218 27.2914 14.8067 27.6L14.5 28.04C14.2726 28.3807 13.9778 28.6712 13.6339 28.8937C13.2899 29.1161 12.904 29.2657 12.5 29.3334C12.3271 29.3503 12.1529 29.3503 11.98 29.3334ZM6.36667 15.4934C7.11959 15.7618 7.79897 16.2033 8.35013 16.7823C8.9013 17.3612 9.30885 18.0615 9.54 18.8267L9.54 18.9867C9.82791 19.7822 9.92245 20.6348 9.8158 21.474C9.70916 22.3133 9.40439 23.1151 8.92667 23.8134C8.84234 23.9065 8.79565 24.0277 8.79565 24.1534C8.79565 24.279 8.84234 24.4002 8.92667 24.4934L11.7933 26.6667C11.8307 26.6961 11.874 26.7171 11.9202 26.7284C11.9664 26.7397 12.0145 26.7409 12.0612 26.7321C12.1079 26.7232 12.1522 26.7045 12.1911 26.6771C12.23 26.6497 12.2626 26.6144 12.2867 26.5734L12.5933 26.1334C13.0559 25.465 13.6735 24.9189 14.3934 24.5416C15.1133 24.1643 15.9139 23.9673 16.7267 23.9673C17.5394 23.9673 18.34 24.1643 19.0599 24.5416C19.7798 24.9189 20.3975 25.465 20.86 26.1334L21.02 26.3734C21.0773 26.4547 21.1629 26.5117 21.26 26.5334C21.3045 26.5399 21.35 26.5374 21.3935 26.526C21.437 26.5145 21.4778 26.4943 21.5133 26.4667L24.26 24.3867C24.3561 24.3104 24.4194 24.2001 24.4368 24.0786C24.4541 23.9571 24.4243 23.8335 24.3533 23.7334L24.0067 23.2267C23.555 22.568 23.257 21.8163 23.1346 21.0271C23.0123 20.2378 23.0688 19.4312 23.3 18.6667C23.5343 17.8632 23.9582 17.1277 24.5359 16.5221C25.1137 15.9165 25.8284 15.4585 26.62 15.1867L26.8867 15.0934C26.9978 15.0488 27.0868 14.9622 27.1343 14.8522C27.1817 14.7423 27.1838 14.6181 27.14 14.5067L26.1 11.1867C26.075 11.1286 26.0385 11.0762 25.9927 11.0326C25.9468 10.9891 25.8926 10.9553 25.8333 10.9334C25.7941 10.9134 25.7507 10.9031 25.7067 10.9031C25.6627 10.9031 25.6193 10.9134 25.58 10.9334L25.1267 11.08C24.3598 11.3331 23.5429 11.3962 22.7463 11.2638C21.9497 11.1314 21.1971 10.8075 20.5533 10.32L20.5 10.2C19.8822 9.73218 19.3813 9.1275 19.0366 8.43347C18.6919 7.73944 18.5128 6.97494 18.5133 6.20002L18.5133 5.78669C18.5157 5.65817 18.4679 5.53379 18.38 5.44002C18.3033 5.3707 18.2034 5.33264 18.1 5.33335L14.7133 5.33335C14.659 5.33674 14.6059 5.35083 14.557 5.3748C14.5082 5.39877 14.4645 5.43215 14.4286 5.47304C14.3927 5.51392 14.3652 5.56149 14.3477 5.61303C14.3302 5.66457 14.3231 5.71905 14.3267 5.77335L14.3267 6.10669C14.3268 6.90274 14.1441 7.68818 13.7927 8.40249C13.4413 9.11679 12.9306 9.74089 12.3 10.2267L12.1267 10.36C11.4463 10.878 10.649 11.2207 9.80493 11.3579C8.96089 11.4951 8.09606 11.4226 7.28667 11.1467C7.22611 11.1264 7.16056 11.1264 7.1 11.1467C7.02475 11.1924 6.96808 11.2632 6.94 11.3467L5.83333 14.8267C5.79476 14.9452 5.8038 15.0741 5.85854 15.1861C5.91329 15.298 6.00944 15.3843 6.12667 15.4267L6.36667 15.4934Z" fill="black"/>
<path d="M16.5 20.6666C15.577 20.6666 14.6748 20.393 13.9073 19.8802C13.1399 19.3674 12.5418 18.6386 12.1886 17.7858C11.8354 16.9331 11.7429 15.9948 11.923 15.0896C12.1031 14.1843 12.5475 13.3528 13.2002 12.7002C13.8528 12.0475 14.6843 11.603 15.5896 11.423C16.4948 11.2429 17.4331 11.3353 18.2859 11.6885C19.1386 12.0418 19.8674 12.6399 20.3802 13.4073C20.893 14.1748 21.1667 15.077 21.1667 16C21.1667 17.2377 20.675 18.4246 19.7998 19.2998C18.9247 20.175 17.7377 20.6666 16.5 20.6666ZM16.5 14C16.1044 14 15.7178 14.1173 15.3889 14.337C15.06 14.5568 14.8036 14.8692 14.6522 15.2346C14.5009 15.6001 14.4613 16.0022 14.5384 16.3902C14.6156 16.7781 14.8061 17.1345 15.0858 17.4142C15.3655 17.6939 15.7219 17.8844 16.1098 17.9616C16.4978 18.0387 16.8999 17.9991 17.2654 17.8477C17.6308 17.6964 17.9432 17.44 18.1629 17.1111C18.3827 16.7822 18.5 16.3955 18.5 16C18.5 15.4695 18.2893 14.9608 17.9142 14.5858C17.5391 14.2107 17.0304 14 16.5 14Z" fill="black"/>
</svg>
