<svg width="33" height="32" viewBox="0 0 33 32" fill="none" xmlns="http://www.w3.org/2000/svg">
<g clip-path="url(#clip0_12_634)">
<path d="M16.5 18C17.6046 18 18.5 17.1046 18.5 16C18.5 14.8954 17.6046 14 16.5 14C15.3954 14 14.5 14.8954 14.5 16C14.5 17.1046 15.3954 18 16.5 18Z" fill="black"/>
<path d="M29.6867 13.76L28.6334 10.4C28.5196 10.0117 28.3289 9.65025 28.0724 9.33725C27.816 9.02425 27.4991 8.7661 27.1408 8.57821C26.7824 8.39031 26.3899 8.27652 25.9866 8.24362C25.5833 8.21071 25.1775 8.25937 24.7934 8.38669L24.34 8.53335C23.9849 8.65075 23.6066 8.68053 23.2375 8.62017C22.8684 8.55981 22.5193 8.41109 22.22 8.18669L22.0734 8.08002C21.7814 7.85652 21.546 7.56752 21.3862 7.23633C21.2263 6.90514 21.1466 6.54102 21.1534 6.17335V5.80002C21.1599 4.96272 20.8338 4.15708 20.2467 3.56002C19.9675 3.27796 19.6353 3.05384 19.2692 2.90053C18.9031 2.74723 18.5103 2.66776 18.1134 2.66669H14.7134C13.8976 2.67723 13.119 3.00961 12.5472 3.59146C11.9753 4.17332 11.6565 4.95753 11.66 5.77335V6.09335C11.6588 6.48038 11.5707 6.86219 11.4022 7.21064C11.2337 7.55909 10.9892 7.86529 10.6867 8.10669L10.5134 8.24002C10.1792 8.49285 9.78827 8.66023 9.37465 8.72762C8.96104 8.795 8.53722 8.76036 8.14005 8.62669C7.77527 8.50045 7.38867 8.44955 7.00364 8.47705C6.61862 8.50455 6.24318 8.60989 5.90005 8.78669C5.54278 8.964 5.22584 9.21295 4.96893 9.51803C4.71202 9.82311 4.52064 10.1778 4.40671 10.56L3.31338 14.0267C3.05984 14.8083 3.12486 15.6583 3.49433 16.3923C3.86379 17.1262 4.50787 17.6848 5.28671 17.9467H5.50005C5.85932 18.0813 6.18179 18.2988 6.44126 18.5814C6.70073 18.8641 6.88989 19.2039 6.99338 19.5734L7.07338 19.7867C7.22202 20.1949 7.27172 20.6325 7.21841 21.0636C7.1651 21.4947 7.0103 21.907 6.76671 22.2667C6.27367 22.9381 6.0657 23.7771 6.18805 24.6011C6.3104 25.4251 6.75317 26.1675 7.42005 26.6667L10.18 28.76C10.7026 29.14 11.334 29.3411 11.98 29.3334C12.153 29.3503 12.3271 29.3503 12.5 29.3334C12.9002 29.2559 13.2803 29.0977 13.6173 28.8685C13.9543 28.6392 14.241 28.3437 14.46 28L14.7667 27.56C14.9818 27.2514 15.2665 26.9978 15.5977 26.8194C15.9289 26.6411 16.2973 26.5431 16.6734 26.5334C17.0675 26.5237 17.4576 26.6139 17.8073 26.7958C18.157 26.9777 18.455 27.2452 18.6734 27.5734L18.8334 27.8C19.0607 28.1383 19.3549 28.4266 19.6978 28.6469C20.0407 28.8673 20.4251 29.0151 20.8273 29.0813C21.2295 29.1475 21.641 29.1307 22.0364 29.0318C22.4319 28.933 22.8029 28.7543 23.1267 28.5067L25.8334 26.48C26.4733 25.983 26.8989 25.26 27.0229 24.4592C27.1468 23.6585 26.9598 22.8406 26.5 22.1734L26.1534 21.6667C25.9449 21.3446 25.8084 20.9813 25.7532 20.6016C25.698 20.2219 25.7253 19.8348 25.8334 19.4667C25.9435 19.0726 26.148 18.7113 26.4291 18.4139C26.7102 18.1166 27.0594 17.8921 27.4467 17.76L27.7134 17.6667C28.485 17.3989 29.1223 16.8417 29.4905 16.1126C29.8588 15.3836 29.9291 14.54 29.6867 13.76ZM16.5 20.6667C15.5771 20.6667 14.6748 20.393 13.9074 19.8802C13.14 19.3674 12.5418 18.6386 12.1886 17.7859C11.8354 16.9332 11.743 15.9948 11.923 15.0896C12.1031 14.1844 12.5476 13.3528 13.2002 12.7002C13.8529 12.0475 14.6844 11.6031 15.5896 11.423C16.4949 11.243 17.4332 11.3354 18.2859 11.6886C19.1386 12.0418 19.8675 12.6399 20.3802 13.4074C20.893 14.1748 21.1667 15.077 21.1667 16C21.1667 17.2377 20.675 18.4247 19.7999 19.2999C18.9247 20.175 17.7377 20.6667 16.5 20.6667Z" fill="black"/>
</g>
<defs>
<clipPath id="clip0_12_634">
<rect width="32" height="32" fill="white" transform="translate(0.5)"/>
</clipPath>
</defs>
</svg>
